<svg width="146" height="42" viewBox="0 0 146 42" fill="none" xmlns="http://www.w3.org/2000/svg">
<path d="M43.4997 23.0986C43.4417 23.0986 43.3256 23.0986 43.2676 23.0406C42.5133 22.8085 42.2813 22.6344 42.1072 21.8802C42.0492 21.8222 42.0492 21.7061 42.0492 21.6481V15.0919C42.0492 14.9759 42.0492 14.9178 42.1072 14.8018C42.2813 14.0476 42.5133 13.8735 43.2676 13.6414C43.3256 13.5834 43.4417 13.5834 43.4997 13.5834H53.2469C53.305 13.5834 53.421 13.5834 53.479 13.6414C54.2333 13.8735 54.4653 14.0476 54.6974 14.8018C54.6974 14.9178 54.6974 14.9759 54.6974 15.0919V21.6481C54.6974 21.7061 54.6974 21.8222 54.6974 21.8802C54.4653 22.6344 54.2333 22.8085 53.479 23.0406C53.421 23.0986 53.305 23.0986 53.2469 23.0986H43.4997ZM61.0215 21.8802C60.7895 22.6344 60.5574 22.8085 59.8611 23.0406C59.7451 23.0986 59.6871 23.0986 59.571 23.0986H59.339C59.2809 23.0986 59.1649 23.0986 59.1069 23.0406C58.3526 22.8085 58.1206 22.6344 57.8885 21.8802C57.8885 21.8222 57.8885 21.7061 57.8885 21.6481V15.0919C57.8885 14.9759 57.8885 14.9178 57.8885 14.8018C58.1206 14.0476 58.3526 13.8735 59.1069 13.6414C59.1649 13.5834 59.2809 13.5834 59.339 13.5834H60.0932C60.6154 13.5834 61.0215 13.1773 61.0215 12.6551V4.99653C61.0215 4.53238 60.6154 4.12624 60.0932 4.12624H59.339C59.2809 4.12624 59.1649 4.06822 59.1069 4.06822C58.3526 3.83614 58.1206 3.66208 57.8885 2.90783C57.8885 2.79179 57.8885 2.73377 57.8885 2.61773V1.86348C57.8885 1.34131 57.4823 0.935173 56.9602 0.935173H46.1105C45.6464 0.935173 45.2403 1.34131 45.2403 1.86348V2.61773C45.2403 2.73377 45.1822 2.79179 45.1822 2.90783C44.9502 3.66208 44.7761 3.83614 44.0218 4.06822C43.9058 4.06822 43.8478 4.12624 43.7318 4.12624H42.9775C42.4553 4.12624 42.0492 4.53238 42.0492 4.99653V6.33098C42.0492 6.85315 42.4553 7.25929 42.9775 7.25929H44.3119C44.7761 7.25929 45.2403 6.85315 45.2403 6.33098V5.57672C45.2403 5.46069 45.2403 5.40267 45.2403 5.28663C45.4723 4.59039 45.7044 4.35832 46.4006 4.12624C46.5167 4.12624 46.5747 4.12624 46.6907 4.12624H56.38C56.496 4.12624 56.554 4.12624 56.6701 4.12624C57.4243 4.35832 57.5984 4.59039 57.8305 5.28663C57.8885 5.40267 57.8885 5.46069 57.8885 5.57672V12.1329C57.8885 12.1909 57.8885 12.307 57.8305 12.365C57.5984 13.1192 57.4243 13.3513 56.6701 13.5834C56.554 13.5834 56.496 13.5834 56.38 13.5834H56.2059C56.0899 13.5834 56.0319 13.5834 55.9158 13.5834C55.1616 13.3513 54.9875 13.1192 54.7554 12.365C54.6974 12.307 54.6974 12.1909 54.6974 12.1329V11.3787C54.6974 10.8565 54.2913 10.4504 53.7691 10.4504H42.9775C42.4553 10.4504 42.0492 10.8565 42.0492 11.3787V12.1329C42.0492 12.1909 42.0492 12.307 41.9912 12.365C41.8171 13.1192 41.585 13.3513 40.8308 13.5834C40.7728 13.5834 40.6567 13.5834 40.5987 13.5834H39.7864C39.3223 13.5834 38.9161 13.9895 38.9161 14.5117V22.1703C38.9161 22.6924 39.3223 23.0986 39.7864 23.0986H40.7147C41.585 23.3307 41.7591 23.5047 41.9912 24.317C42.0492 24.375 42.0492 24.4911 42.0492 24.5491V25.3613C42.0492 25.8255 42.4553 26.2316 42.9775 26.2316H53.7691C54.2913 26.2316 54.6974 25.8255 54.6974 25.3613V24.5491C54.6974 24.4911 54.6974 24.375 54.7554 24.317C54.9875 23.5047 55.2196 23.3307 56.0319 23.0986H56.554C57.3663 23.3307 57.5984 23.5047 57.8305 24.317C57.8885 24.375 57.8885 24.4911 57.8885 24.5491V25.3613C57.8885 25.8255 58.2946 26.2316 58.8168 26.2316H60.0932C60.6154 26.2316 61.0215 25.8255 61.0215 25.3613V24.5491C61.0215 24.4911 61.0796 24.375 61.0796 24.317C61.3116 23.5047 61.5437 23.3307 62.356 23.0986H63.2843C63.8065 23.0986 64.2126 22.6924 64.2126 22.1703V20.8358C64.2126 20.3137 63.8065 19.9075 63.2843 19.9075H61.9498C61.4277 19.9075 61.0215 20.3137 61.0215 20.8358V21.6481C61.0215 21.7061 61.0215 21.8222 61.0215 21.8802Z" fill="#FF9344"/>
<path d="M89.238 11.6688C89.238 11.7848 89.238 11.8428 89.238 11.9589C89.0059 12.7131 88.7738 12.8872 87.9036 13.1192H87.0333C86.5111 13.1192 86.105 13.5834 86.105 14.0476V21.1839C86.105 21.242 86.105 21.358 86.0469 21.416C85.8149 22.1703 85.6408 22.4024 84.8866 22.5764C84.8285 22.6344 84.7125 22.6344 84.5965 22.6344H74.9072C74.7912 22.6344 74.7332 22.6344 74.6171 22.5764C73.9209 22.4024 73.6888 22.1703 73.4567 21.416C73.4567 21.358 73.4567 21.242 73.4567 21.1839V14.6278C73.4567 14.5117 73.4567 14.4537 73.4567 14.3377C73.6888 13.6414 73.9209 13.4093 74.6171 13.1773C74.7332 13.1773 74.7912 13.1192 74.9072 13.1192H75.6615C76.1836 13.1192 76.5898 12.7131 76.5898 12.249V5.11257C76.5898 5.05455 76.5898 4.93851 76.6478 4.88049C76.8799 4.12624 77.0539 3.89416 77.8082 3.66208C77.8662 3.66208 77.9822 3.66208 78.0403 3.66208H84.5965C84.7125 3.66208 84.8285 3.66208 84.8866 3.66208C85.6408 3.89416 85.8149 4.12624 86.0469 4.88049C86.105 4.93851 86.105 5.05455 86.105 5.11257V5.92484C86.105 6.389 86.5111 6.79513 87.0333 6.79513H87.7875C87.9036 6.79513 87.9616 6.85315 88.0776 6.85315C88.7738 7.08523 89.0059 7.25929 89.238 8.01354C89.238 8.12958 89.238 8.1876 89.238 8.30364V11.6688ZM90.5724 6.79513C89.7602 6.56306 89.5281 6.389 89.296 5.57672C89.296 5.51871 89.238 5.46069 89.238 5.34465V4.59039C89.238 4.06822 88.8319 3.66208 88.3097 3.66208H87.4394C86.5691 3.43001 86.337 3.19793 86.105 2.44368C86.105 2.38566 86.105 2.26962 86.105 2.15358V1.39933C86.105 0.877152 85.6988 0.471016 85.1766 0.471016H77.5181C76.9959 0.471016 76.5898 0.877152 76.5898 1.39933V2.15358C76.5898 2.26962 76.5898 2.38566 76.5318 2.44368C76.2997 3.19793 76.1256 3.43001 75.2553 3.66208H74.9072C74.7912 3.66208 74.7332 3.66208 74.6171 3.60407C73.9209 3.37199 73.6888 3.19793 73.4567 2.44368C73.4567 2.38566 73.4567 2.26962 73.4567 2.2116V1.39933C73.4567 0.877152 72.9926 0.471016 72.5284 0.471016H71.194C70.6718 0.471016 70.2657 0.877152 70.2657 1.39933V2.73377C70.2657 3.25595 70.6718 3.66208 71.194 3.66208H72.1223C72.1223 3.66208 72.1223 3.66208 72.0643 3.66208C72.9345 3.89416 73.1666 4.06822 73.3987 4.88049C73.3987 4.93851 73.4567 5.05455 73.4567 5.11257V11.6688C73.4567 11.7848 73.3987 11.8428 73.3987 11.9589C73.1666 12.7131 72.9345 12.8872 72.0643 13.1192C72.1223 13.1192 72.1223 13.1192 72.1223 13.1192H71.194C70.6718 13.1192 70.2657 13.5834 70.2657 14.0476V17.9929C70.2657 18.1089 70.2657 18.1669 70.2076 18.283C70.0336 18.9792 69.8015 19.2113 69.0472 19.4434C68.9892 19.4434 68.8732 19.5014 68.8152 19.5014H68.0029C67.5387 19.5014 67.1326 19.9075 67.1326 20.3717V40.7365C67.1326 41.2006 67.5387 41.6068 68.0029 41.6068H69.3373C69.8595 41.6068 70.2657 41.2006 70.2657 40.7365V24.0849C70.2657 24.0269 70.2657 23.9109 70.3237 23.8528C70.5558 23.0406 70.7878 22.8665 71.6001 22.6344H72.1223H72.0643C72.9345 22.8665 73.1666 23.0406 73.3987 23.8528C73.3987 23.9109 73.4567 24.0269 73.4567 24.0849V24.8972C73.4567 25.4194 73.8629 25.8255 74.327 25.8255H85.1766C85.6988 25.8255 86.105 25.4194 86.105 24.8972V24.0849C86.105 24.0269 86.105 23.9109 86.105 23.8528C86.337 23.0406 86.5691 22.8665 87.4394 22.6344H88.3097C88.8319 22.6344 89.238 22.2283 89.238 21.7061V14.6278C89.238 14.5117 89.296 14.4537 89.296 14.3377C89.5281 13.6414 89.7022 13.4093 90.4564 13.1773C90.5725 13.1773 90.6305 13.1192 90.7465 13.1192H91.5008C92.0229 13.1192 92.4291 12.7131 92.4291 12.249V7.72344C92.4291 7.20127 92.0229 6.79513 91.5008 6.79513H90.5724Z" fill="#FF9344"/>
<path d="M3.37857 24.8196V25.5738C3.37857 26.096 3.7847 26.5021 4.30688 26.5021H11.9654C12.4876 26.5021 12.8938 26.096 12.8938 25.5738V24.8196C12.8938 24.7035 12.8938 24.6455 12.8938 24.5295C13.1258 23.8332 13.3579 23.6012 14.1122 23.3691C14.1702 23.3691 14.2282 23.3111 14.3442 23.3111L14.5763 23.3111C14.6343 23.3111 14.7504 23.3691 14.8084 23.3691C15.5626 23.6012 15.7947 23.8332 16.0268 24.5295C16.0268 24.6455 16.0268 24.7035 16.0268 24.8196V25.5738C16.0268 26.096 16.4329 26.5021 16.9551 26.5021H24.6137C25.1358 26.5021 25.542 26.096 25.542 25.5738V24.8196C25.542 24.7035 25.542 24.6455 25.6 24.5295C25.7741 23.8332 26.0061 23.6012 26.7604 23.3691C26.8184 23.3691 26.9344 23.3111 26.9925 23.3111H27.2245C27.3406 23.3111 27.3986 23.3691 27.5146 23.3691C28.2109 23.6012 28.443 23.8332 28.675 24.5295C28.675 24.6455 28.675 24.7035 28.675 24.8196V25.5738C28.675 26.096 29.1392 26.5021 29.6033 26.5021H30.9378C31.46 26.5021 31.8661 26.096 31.8661 25.5738V24.2394C31.8661 23.7752 31.46 23.3111 30.9378 23.3111H30.1835C30.0675 23.3111 30.0095 23.3111 29.8934 23.3111C29.1392 23.079 28.9651 22.8469 28.733 22.1507C28.733 22.0346 28.675 21.9766 28.675 21.8606V15.3044C28.675 15.2464 28.733 15.1303 28.733 15.0723C28.9651 14.318 29.1392 14.086 29.8934 13.8539C30.0095 13.8539 30.0675 13.8539 30.1835 13.8539H30.9378C31.46 13.8539 31.8661 13.4478 31.8661 12.9256V8.98026C31.8661 8.92224 31.8661 8.8062 31.9241 8.74819C32.0982 7.99393 32.3303 7.76185 33.0845 7.52978C33.1425 7.52978 33.2586 7.52978 33.3166 7.52978H34.1289C34.593 7.52978 34.9991 7.12364 34.9991 6.60147L34.9991 2.07595C34.9991 1.6118 34.593 1.20566 34.1289 1.20566L32.7944 1.20566C32.2722 1.20566 31.8661 1.6118 31.8661 2.07595L31.8661 6.02127C31.8661 6.13731 31.8661 6.19533 31.8081 6.31137C31.634 7.06562 31.4019 7.23968 30.6477 7.47176C30.5897 7.47176 30.4736 7.52978 30.4156 7.52978H29.6033C29.1392 7.52978 28.675 7.93591 28.675 8.45809L28.675 12.3454C28.675 12.4614 28.675 12.5194 28.675 12.6355C28.443 13.3897 28.2109 13.5638 27.5146 13.7959C27.3986 13.8539 27.3406 13.8539 27.2245 13.8539H26.4703C25.9481 13.8539 25.542 14.26 25.542 14.7822L25.542 21.8606C25.542 21.9766 25.542 22.0346 25.484 22.1507C25.2519 22.8469 25.0778 23.079 24.3236 23.3111C24.2656 23.3111 24.1495 23.3111 24.0915 23.3111H17.5353C17.4193 23.3111 17.3612 23.3111 17.2452 23.3111C16.491 23.079 16.3169 22.8469 16.0848 22.1507C16.0268 22.0346 16.0268 21.9766 16.0268 21.8606V15.3044C16.0268 15.2464 16.0268 15.1303 16.0848 15.0723C16.3169 14.26 16.549 14.086 17.3612 13.8539H18.2896C18.8117 13.8539 19.2179 13.4478 19.2179 12.9256V8.98026C19.2179 8.92224 19.2179 8.80621 19.2179 8.74819C19.4499 7.99393 19.682 7.76186 20.4363 7.52978C20.4943 7.52978 20.6103 7.52978 20.6684 7.52978L21.4226 7.52978C21.9448 7.52978 22.3509 7.12364 22.3509 6.60147V2.07595C22.3509 1.6118 21.9448 1.20566 21.4226 1.20566L20.1462 1.20566C19.624 1.20566 19.2179 1.6118 19.2179 2.07595V6.02127C19.2179 6.13731 19.2179 6.19533 19.1598 6.31137C18.9278 7.06562 18.7537 7.23968 17.9995 7.47176C17.8834 7.47176 17.8254 7.52978 17.7094 7.52978H16.9551C16.4329 7.52978 16.0268 7.93591 16.0268 8.45809V12.3454C16.0268 12.4614 16.0268 12.5775 16.0268 12.6355C15.7947 13.3897 15.5626 13.5638 14.8084 13.7959C14.7504 13.8539 14.6343 13.8539 14.5763 13.8539H13.8221C13.2999 13.8539 12.8938 14.26 12.8938 14.7822L12.8938 21.8606C12.8938 21.9766 12.8357 22.0346 12.8357 22.1507C12.6037 22.8469 12.4296 23.079 11.6753 23.3111C11.5593 23.3111 11.5013 23.3111 11.3852 23.3111H4.82905C4.77103 23.3111 4.655 23.3111 4.59697 23.3111C3.84272 23.079 3.61065 22.8469 3.43659 22.1507C3.37857 22.0346 3.37857 21.9766 3.37857 21.8606L3.37857 15.3044C3.37857 15.2464 3.37857 15.1303 3.43659 15.0723C3.66866 14.26 3.90074 14.086 4.71301 13.8539H5.64132C6.10548 13.8539 6.56964 13.4478 6.56964 12.9256L6.56963 8.98026C6.56963 8.92225 6.56963 8.80621 6.56963 8.74819C6.80171 7.93592 7.03379 7.76186 7.90408 7.52978H8.77437C9.29655 7.52978 9.70268 7.12364 9.70268 6.60147L9.70268 2.07595C9.70268 1.6118 9.29655 1.20566 8.77437 1.20566L7.43992 1.20566C6.97577 1.20566 6.56963 1.6118 6.56963 2.07596V6.02128C6.56963 6.13731 6.51161 6.19533 6.51161 6.31137C6.27954 7.06562 6.10548 7.23968 5.35123 7.47176C5.23519 7.47176 5.17717 7.52978 5.06113 7.52978L4.30688 7.52978C3.7847 7.52978 3.37857 7.93592 3.37857 8.45809L3.37857 12.3454C3.37857 12.4614 3.37857 12.5775 3.32055 12.6355C3.14649 13.3897 2.91441 13.5638 2.16016 13.7959C2.10214 13.8539 1.9861 13.8539 1.92808 13.8539H1.11581C0.651656 13.8539 0.1875 14.26 0.1875 14.7822L0.187501 22.4408C0.187501 22.9049 0.651657 23.3111 1.11581 23.3111H1.92808C1.9861 23.3111 2.10214 23.3691 2.16016 23.3691C2.91441 23.6012 3.14649 23.8332 3.32055 24.5295C3.37857 24.6455 3.37857 24.7035 3.37857 24.8196Z" fill="#FF9344"/>
<path d="M117.589 5.57672C117.589 5.63474 117.589 5.75078 117.589 5.8088C117.357 6.62107 117.125 6.79513 116.255 7.02721H115.385C114.862 7.02721 114.456 7.43335 114.456 7.95552V11.9008C114.456 11.9589 114.456 12.0749 114.398 12.1329C114.166 12.8872 113.992 13.1192 113.238 13.3513C113.122 13.3513 113.064 13.3513 112.948 13.3513H112.193C111.671 13.3513 111.265 13.7575 111.265 14.2796V21.416C111.265 21.474 111.265 21.5901 111.265 21.6481C111.033 22.4024 110.801 22.6344 110.047 22.8085C109.989 22.8665 109.873 22.8665 109.815 22.8665H100.067C100.009 22.8665 99.8934 22.8665 99.8353 22.8085C99.0811 22.6344 98.849 22.4024 98.6749 21.6481C98.6169 21.5901 98.6169 21.474 98.6169 21.416V17.9929C98.6169 17.9349 98.6169 17.8188 98.6749 17.7608C98.907 16.9485 99.1391 16.7745 99.9514 16.5424H100.88C101.402 16.5424 101.808 16.1363 101.808 15.6141V8.53571C101.808 8.41968 101.808 8.36166 101.808 8.24562C102.04 7.49137 102.272 7.31731 102.968 7.08523C103.084 7.02721 103.142 7.02721 103.258 7.02721H104.013C104.535 7.02721 104.941 6.62107 104.941 6.0989V1.63141C104.941 1.10923 104.535 0.703095 104.013 0.703095H102.678C102.214 0.703095 101.808 1.10923 101.808 1.63141V5.57672C101.808 5.63474 101.75 5.75078 101.75 5.8088C101.518 6.62107 101.286 6.79513 100.416 7.02721C100.474 7.02721 100.474 7.02721 100.474 7.02721H99.5452C99.0231 7.02721 98.6169 7.43335 98.6169 7.95552V15.0919C98.6169 15.1499 98.6169 15.266 98.5589 15.324C98.3849 16.0782 98.1528 16.2523 97.3985 16.4844C97.3405 16.5424 97.2245 16.5424 97.1665 16.5424H96.3542C95.89 16.5424 95.4839 16.9485 95.4839 17.4707V21.9382C95.4839 22.4604 95.89 22.8665 96.3542 22.8665H97.1665C97.2245 22.8665 97.3405 22.8665 97.3985 22.9245C98.1528 23.0986 98.3849 23.3307 98.5589 24.0849C98.6169 24.1429 98.6169 24.259 98.6169 24.317V25.1293C98.6169 25.5934 99.0231 25.9996 99.5452 25.9996H110.337C110.859 25.9996 111.265 25.5934 111.265 25.1293V24.317C111.265 24.259 111.265 24.1429 111.323 24.0849C111.555 23.3307 111.729 23.0986 112.484 22.9245C112.6 22.8665 112.658 22.8665 112.774 22.8665H112.948C113.064 22.8665 113.122 22.8665 113.238 22.9245C113.992 23.0986 114.166 23.3307 114.398 24.0849C114.456 24.1429 114.456 24.259 114.456 24.317V25.1293C114.456 25.5934 114.862 25.9996 115.385 25.9996H116.661C117.183 25.9996 117.589 25.5934 117.589 25.1293V24.317C117.589 24.259 117.647 24.1429 117.647 24.0849C117.879 23.3307 118.053 23.0986 118.808 22.9245C118.924 22.8665 118.982 22.8665 119.098 22.8665H119.852C120.374 22.8665 120.78 22.4604 120.78 21.9382V20.6038C120.78 20.0816 120.374 19.6754 119.852 19.6754H118.518C117.995 19.6754 117.589 20.0816 117.589 20.6038V21.416C117.589 21.474 117.589 21.5901 117.589 21.6481C117.357 22.4024 117.125 22.6344 116.371 22.8085C116.313 22.8665 116.255 22.8665 116.139 22.8665H115.907C115.849 22.8665 115.733 22.8665 115.675 22.8085C114.92 22.6344 114.688 22.4024 114.456 21.6481C114.456 21.5901 114.456 21.474 114.456 21.416V14.8598C114.456 14.7438 114.456 14.6858 114.456 14.5697C114.688 13.8155 114.92 13.5834 115.791 13.3513H116.661C117.183 13.3513 117.589 12.9452 117.589 12.423V8.53571C117.589 8.41968 117.647 8.36166 117.647 8.24562C117.879 7.49137 118.053 7.31731 118.808 7.08523C118.924 7.02721 118.982 7.02721 119.098 7.02721H119.852C120.374 7.02721 120.78 6.62107 120.78 6.0989V1.63141C120.78 1.10923 120.374 0.703095 119.852 0.703095H118.518C117.995 0.703095 117.589 1.10923 117.589 1.63141V5.57672Z" fill="#FF9344"/>
<path d="M141.03 0.460938C142.086 0.460928 142.016 1.2732 142.016 1.38924V5.9148C142.016 6.37896 141.61 6.78511 141.088 6.78511H140.334C140.276 6.78511 140.16 6.84313 140.102 6.84313C139.347 7.0752 139.115 7.30728 138.883 8.00351V9.04786C138.883 9.57004 138.477 9.97618 137.955 9.97618H137.143C137.143 9.97618 136.982 10.0177 136.91 10.0342C136.156 10.2083 135.982 10.4403 135.75 11.1946C135.732 11.2531 135.692 11.4267 135.692 11.4267V11.6587C135.692 11.6587 135.735 11.9058 135.75 11.9488C135.982 12.7031 136.156 12.8771 136.91 13.1092C136.968 13.1092 137.085 13.1672 137.143 13.1672H137.955C138.477 13.1672 138.883 13.5734 138.883 14.0375V22.5376C139.115 23.2919 139.347 23.4659 140.102 23.698C140.16 23.698 140.276 23.756 140.334 23.756H140.566C140.624 23.756 140.74 23.698 140.798 23.698C141.552 23.4659 141.784 23.2919 142.016 22.5376V21.4933C142.016 20.9711 142.422 20.5649 142.944 20.5649H144.279C144.801 20.5649 145.207 20.9711 145.207 21.4933V22.8277C145.207 23.3499 144.801 23.756 144.279 23.756H143.235C142.48 23.9881 142.306 24.2202 142.074 24.9744C142.016 25.0324 142.016 25.0905 142.016 25.2065V25.9607C142.016 26.4829 141.61 26.8891 141.088 26.8891H139.811C139.289 26.8891 138.883 26.4829 138.883 25.9607V25.2065C138.883 25.0905 138.825 25.0324 138.825 24.9744C138.593 24.2202 138.419 23.9881 137.665 23.756H136.62C136.098 23.756 135.692 23.3499 135.692 22.8277V18.8824C135.692 18.7663 135.692 18.7083 135.634 18.5923C135.46 17.896 135.228 17.664 134.474 17.4319H133.429C132.965 17.4319 132.559 16.9678 132.559 16.5037V15.6915C132.559 15.6334 132.501 15.5174 132.501 15.4594C132.269 14.7051 132.095 14.473 131.341 14.299C131.225 14.241 131.167 14.241 131.05 14.241H130.818C130.76 14.241 130.644 14.241 130.586 14.299C129.832 14.473 129.6 14.7051 129.426 15.4594C129.368 15.5174 129.368 15.6334 129.368 15.6915V25.9607C129.368 26.4829 128.962 26.8891 128.44 26.8891H127.105C126.641 26.8891 126.235 26.4829 126.235 25.9607L126.177 8.84516C126.177 8.32298 126.583 7.91685 127.105 7.91685H127.859C127.975 7.91685 128.033 7.91685 128.149 7.85883C128.904 7.68477 129.078 7.45269 129.31 6.69844C129.31 6.64042 129.368 6.52438 129.368 6.46636V1.38967C129.368 0.878302 129.716 0.591889 130.949 0.591888C132.182 0.591888 132.501 0.980307 132.501 1.38967V6.98853C132.501 7.51071 132.095 7.91685 131.572 7.91685H130.818C130.702 7.91685 130.644 7.91685 130.528 7.97487C129.832 8.14892 129.6 8.381 129.368 9.13525V9.88951C129.6 10.5857 129.832 10.8178 130.528 11.0499H133.197C133.489 11.0499 134.575 10.7895 135.01 10.3828C135.445 9.97618 135.663 9.58507 135.663 8.85983V7.91685C135.663 7.40934 136.025 6.78511 136.606 6.78511H137.665C138.419 6.55303 138.593 6.32095 138.825 5.62471C138.825 5.50868 138.883 5.4506 138.883 5.33456V1.38924C138.883 0.867065 139.289 0.460938 139.811 0.460938H141.03Z" fill="#FF9344"/>
</svg>
